<?xml version="1.0" encoding="UTF-8"?>
<svg id="Layer_2" data-name="Layer 2" xmlns="http://www.w3.org/2000/svg" viewBox="0 0 37.7 37.7">
  <defs>
    <style>
      .cls-1 {
        fill: #fff;
        fill-rule: evenodd;
      }

      .cls-2 {
        fill: none;
        stroke: #313131;
        stroke-linecap: round;
        stroke-linejoin: round;
        stroke-width: 1.5px;
      }
    </style>
  </defs>
  <g id="Layer_2-2" data-name="Layer 2">
    <g>
      <path class="cls-1" d="M18.85,0c10.41,0,18.85,8.44,18.85,18.85s-8.44,18.85-18.85,18.85S0,29.26,0,18.85,8.44,0,18.85,0Z"/>
      <g>
        <path class="cls-2" d="M8.35,18.85c0,1.71,1.39,3.09,3.09,3.09s3.09-1.39,3.09-3.09-1.39-3.09-3.09-3.09-3.09,1.39-3.09,3.09"/>
        <path class="cls-2" d="M20.73,12.66c0,1.71,1.39,3.09,3.09,3.09s3.09-1.39,3.09-3.09-1.39-3.09-3.09-3.09-3.09,1.39-3.09,3.09"/>
        <path class="cls-2" d="M20.73,25.04c0,1.71,1.39,3.09,3.09,3.09s3.09-1.39,3.09-3.09-1.39-3.09-3.09-3.09-3.09,1.39-3.09,3.09"/>
        <path class="cls-2" d="M14.23,17.51l6.81-3.51"/>
        <path class="cls-2" d="M14.23,20.19l6.81,3.51"/>
      </g>
    </g>
  </g>
</svg>