<?xml version="1.0" encoding="UTF-8"?>
<svg id="Layer_2" data-name="Layer 2" xmlns="http://www.w3.org/2000/svg" viewBox="0 0 37.7 37.7">
  <defs>
    <style>
      .cls-1 {
        fill: none;
      }

      .cls-2 {
        fill: #1d1d1b;
      }

      .cls-3 {
        fill: #ffda00;
      }
    </style>
  </defs>
  <g id="Layer_1-2" data-name="Layer 1">
    <g>
      <path class="cls-3" d="M37.7,18.85c0,10.41-8.44,18.85-18.85,18.85S0,29.26,0,18.85,8.44,0,18.85,0s18.85,8.44,18.85,18.85"/>
      <rect class="cls-1" x="8.93" y="8.93" width="19.84" height="19.84"/>
      <g>
        <path class="cls-2" d="M18.85,9.96c-6.18,0-11.18,3.96-11.18,8.83,0,3.14,2.07,5.89,5.19,7.46l-1.05,3.94c-.04.12,0,.24.08.33.06.06.14.09.23.09.07,0,.14-.02.2-.07l4.53-3.06c.65.09,1.32.14,2.01.14,6.18,0,11.18-3.95,11.18-8.83s-5.01-8.83-11.18-8.83ZM13.21,21.13c0,.35-.2.56-.53.56s-.53-.21-.53-.56v-3.88h-1.13c-.35,0-.48-.26-.48-.49,0-.24.17-.49.48-.49h3.32c.31,0,.48.25.48.49s-.13.49-.48.49h-1.12v3.88ZM18.38,21.69c-.27,0-.44-.12-.52-.37l-.23-.73h-2.23l-.24.72c-.08.26-.25.38-.51.38-.3,0-.53-.22-.53-.49,0-.11.03-.19.05-.23l1.55-4.11c.11-.3.38-.62.8-.62.37,0,.66.23.8.62l1.5,4.11c.05.13.06.23.06.27,0,.26-.21.46-.49.46ZM22.49,21.16c0,.23-.19.47-.51.47h-1.99c-.35,0-.56-.22-.56-.59v-4.25c0-.34.2-.56.53-.56s.53.21.53.56v3.87h1.48c.16,0,.29.05.39.15.09.09.13.22.13.36ZM26.94,21.27c-.04.39-.42.42-.53.42-.03,0-.06,0-.08,0-.2-.02-.31-.14-.51-.42l-1.41-1.92-.38.39v1.44c0,.29-.23.51-.53.51-.32,0-.54-.21-.54-.51v-4.43c0-.31.23-.53.54-.53s.53.21.53.53v1.71l1.88-1.96c.08-.08.22-.2.43-.2.26,0,.52.18.51.49,0,.15-.09.24-.26.44-.04.04-.08.09-.13.15l-1.29,1.3,1.52,1.99c.16.21.29.38.26.59Z"/>
        <path class="cls-2" d="M16.5,17.2l-.81,2.43h1.63l-.81-2.43s-.02-.01-.02,0Z"/>
      </g>
    </g>
  </g>
</svg>